<?xml version="1.0" encoding="UTF-8" standalone="no"?>
<!-- Created with Inkscape (http://www.inkscape.org/) -->
<svg
   xmlns:dc="http://purl.org/dc/elements/1.1/"
   xmlns:cc="http://web.resource.org/cc/"
   xmlns:rdf="http://www.w3.org/1999/02/22-rdf-syntax-ns#"
   xmlns:svg="http://www.w3.org/2000/svg"
   xmlns="http://www.w3.org/2000/svg"
   xmlns:sodipodi="http://sodipodi.sourceforge.net/DTD/sodipodi-0.dtd"
   xmlns:inkscape="http://www.inkscape.org/namespaces/inkscape"
   width="60"
   height="53"
   id="Ogham vertical letter ifin"
   sodipodi:version="0.32"
   inkscape:version="0.44"
   version="1.0"
   sodipodi:docbase="D:\Home\Wikipedia\up"
   sodipodi:docname="Ogham vertical letter ifin.svg">
  <defs
     id="defs2218" />
  <sodipodi:namedview
     id="base"
     pagecolor="#ffffff"
     bordercolor="#666666"
     borderopacity="1.0"
     gridtolerance="10000"
     guidetolerance="10"
     objecttolerance="10"
     inkscape:pageopacity="0.0"
     inkscape:pageshadow="2"
     inkscape:zoom="9.7924528"
     inkscape:cx="30"
     inkscape:cy="26.5"
     inkscape:document-units="px"
     inkscape:current-layer="layer1"
     inkscape:window-width="1024"
     inkscape:window-height="682"
     inkscape:window-x="-4"
     inkscape:window-y="-4" />
  <metadata
     id="metadata2221">
    <rdf:RDF>
      <cc:Work
         rdf:about="">
        <dc:format>image/svg+xml</dc:format>
        <dc:type
           rdf:resource="http://purl.org/dc/dcmitype/StillImage" />
      </cc:Work>
    </rdf:RDF>
  </metadata>
  <g
     inkscape:label="Layer 1"
     inkscape:groupmode="layer"
     id="layer1"
     transform="translate(-348.5,-502.3622)">
    <path
       style="fill:black;fill-opacity:1;fill-rule:evenodd;stroke:none;stroke-width:4.00000191;stroke-linecap:square;stroke-linejoin:miter;stroke-miterlimit:4;stroke-dasharray:none;stroke-opacity:1"
       d="M 376.50926,555.3622 L 380.50926,555.3622 L 380.50926,552.2372 L 392.97801,537.01845 L 403.82176,550.2372 L 403.82176,543.9247 L 395.57176,533.8622 L 397.07176,532.01845 L 403.82176,540.2372 L 403.82176,533.9247 L 399.66551,528.8622 L 403.82176,523.7997 L 403.82176,517.4872 L 397.07176,525.70595 L 395.57176,523.8622 L 403.82176,513.7997 L 403.82176,507.4872 L 392.97801,520.70595 L 380.50926,505.4872 L 380.50926,502.3622 L 376.50926,502.3622 L 376.50926,555.3622 z M 380.50926,545.9247 L 380.50926,542.2372 L 388.88426,532.01845 L 390.38426,533.8622 L 380.50926,545.9247 z M 380.50926,535.9247 L 380.50926,521.7997 L 386.29051,528.8622 L 380.50926,535.9247 z M 380.50926,515.4872 L 380.50926,511.7997 L 390.41551,523.8622 L 388.88426,525.70595 L 380.50926,515.4872 z M 391.47801,528.8622 L 392.97801,527.01845 L 394.50926,528.8622 L 392.97801,530.70595 L 391.47801,528.8622 z "
       id="path5840"
       sodipodi:nodetypes="ccccccccccccccccccccccccccccccccccccccccc" />
  </g>
</svg>
