<?xml version="1.0" encoding="UTF-8" standalone="no"?>
<!-- Created with Inkscape (http://www.inkscape.org/) -->
<svg
   xmlns:dc="http://purl.org/dc/elements/1.1/"
   xmlns:cc="http://web.resource.org/cc/"
   xmlns:rdf="http://www.w3.org/1999/02/22-rdf-syntax-ns#"
   xmlns:svg="http://www.w3.org/2000/svg"
   xmlns="http://www.w3.org/2000/svg"
   xmlns:sodipodi="http://sodipodi.sourceforge.net/DTD/sodipodi-0.dtd"
   xmlns:inkscape="http://www.inkscape.org/namespaces/inkscape"
   width="60"
   height="42"
   id="Ogham vertical letter ur"
   sodipodi:version="0.32"
   inkscape:version="0.44"
   version="1.0"
   sodipodi:docbase="D:\Home\Wikipedia\up"
   sodipodi:docname="Ogham vertical letter ur.svg">
  <defs
     id="defs2143" />
  <sodipodi:namedview
     id="base"
     pagecolor="#ffffff"
     bordercolor="#666666"
     borderopacity="1.0"
     gridtolerance="10000"
     guidetolerance="10"
     objecttolerance="10"
     inkscape:pageopacity="0.0"
     inkscape:pageshadow="2"
     inkscape:zoom="12.357143"
     inkscape:cx="30"
     inkscape:cy="21"
     inkscape:document-units="px"
     inkscape:current-layer="layer1"
     inkscape:window-width="1024"
     inkscape:window-height="682"
     inkscape:window-x="-4"
     inkscape:window-y="-4" />
  <metadata
     id="metadata2146">
    <rdf:RDF>
      <cc:Work
         rdf:about="">
        <dc:format>image/svg+xml</dc:format>
        <dc:type
           rdf:resource="http://purl.org/dc/dcmitype/StillImage" />
      </cc:Work>
    </rdf:RDF>
  </metadata>
  <g
     inkscape:label="Layer 1"
     inkscape:groupmode="layer"
     id="layer1"
     transform="translate(121,-76.6479)">
    <path
       style="fill:black;fill-opacity:1;fill-rule:evenodd;stroke:none;stroke-width:4.00000191;stroke-linecap:square;stroke-linejoin:miter;stroke-miterlimit:4;stroke-dasharray:none;stroke-opacity:1"
       d="M -103.5,109.6479 L -93,109.6479 L -93,118.6479 L -89,118.6479 L -89,109.6479 L -78.5,109.6479 L -78.5,105.6479 L -89,105.6479 L -89,99.6479 L -78.5,99.6479 L -78.5,95.6479 L -89,95.6479 L -89,89.6479 L -78.5,89.6479 L -78.5,85.6479 L -89,85.6479 L -89,76.6479 L -93,76.6479 L -93,85.6479 L -103.5,85.6479 L -103.5,89.6479 L -93,89.6479 L -93,95.6479 L -103.5,95.6479 L -103.5,99.6479 L -93,99.6479 L -93,105.6479 L -103.5,105.6479 L -103.5,109.6479 z "
       id="path3974" />
  </g>
</svg>
