<?xml version="1.0" encoding="UTF-8" standalone="no"?>
<!-- Created with Inkscape (http://www.inkscape.org/) -->
<svg
   xmlns:dc="http://purl.org/dc/elements/1.1/"
   xmlns:cc="http://web.resource.org/cc/"
   xmlns:rdf="http://www.w3.org/1999/02/22-rdf-syntax-ns#"
   xmlns:svg="http://www.w3.org/2000/svg"
   xmlns="http://www.w3.org/2000/svg"
   xmlns:sodipodi="http://sodipodi.sourceforge.net/DTD/sodipodi-0.dtd"
   xmlns:inkscape="http://www.inkscape.org/namespaces/inkscape"
   width="60"
   height="52.000023"
   id="Ogham vertical letter eadhadh"
   sodipodi:version="0.32"
   inkscape:version="0.44"
   version="1.0"
   sodipodi:docbase="D:\Home\Wikipedia\up"
   sodipodi:docname="Ogham vertical letter eadhadh.svg">
  <defs
     id="defs2154" />
  <sodipodi:namedview
     id="base"
     pagecolor="#ffffff"
     bordercolor="#666666"
     borderopacity="1.0"
     gridtolerance="10000"
     guidetolerance="10"
     objecttolerance="10"
     inkscape:pageopacity="0.0"
     inkscape:pageshadow="2"
     inkscape:zoom="9.9807648"
     inkscape:cx="30"
     inkscape:cy="26.000011"
     inkscape:document-units="px"
     inkscape:current-layer="layer1"
     inkscape:window-width="1024"
     inkscape:window-height="682"
     inkscape:window-x="-4"
     inkscape:window-y="-4" />
  <metadata
     id="metadata2157">
    <rdf:RDF>
      <cc:Work
         rdf:about="">
        <dc:format>image/svg+xml</dc:format>
        <dc:type
           rdf:resource="http://purl.org/dc/dcmitype/StillImage" />
      </cc:Work>
    </rdf:RDF>
  </metadata>
  <g
     inkscape:label="Layer 1"
     inkscape:groupmode="layer"
     id="layer1"
     transform="translate(-531.1429,60.49496)">
    <path
       style="fill:black;fill-opacity:1;fill-rule:evenodd;stroke:none;stroke-width:4.00000191;stroke-linecap:square;stroke-linejoin:miter;stroke-miterlimit:4;stroke-dasharray:none;stroke-opacity:1"
       d="M 548.64294,-17.49496 L 559.14294,-17.49496 L 559.14294,-8.49496 L 563.14294,-8.49496 L 563.14294,-17.49496 L 573.64294,-17.49496 L 573.64294,-21.49496 L 563.14294,-21.49496 L 563.14294,-27.49496 L 573.64294,-27.49496 L 573.64294,-31.49496 L 563.14294,-31.49496 L 563.14294,-37.49496 L 573.64294,-37.49496 L 573.64294,-41.49496 L 563.14294,-41.49496 L 563.14294,-47.49496 L 573.64294,-47.49496 L 573.64294,-51.49496 L 563.14294,-51.49496 L 563.14294,-60.49496 L 559.14294,-60.49496 L 559.14294,-51.49496 L 548.64294,-51.49496 L 548.64294,-47.49496 L 559.14294,-47.49496 L 559.14294,-41.49496 L 548.64294,-41.49496 L 548.64294,-37.49496 L 559.14294,-37.49496 L 559.14294,-31.49496 L 548.64294,-31.49496 L 548.64294,-27.49496 L 559.14294,-27.49496 L 559.14294,-21.49496 L 548.64294,-21.49496 L 548.64294,-17.49496 z "
       id="path3984" />
  </g>
</svg>
